Coordinates
version=1
nRows=16
nColumns=36
inDegrees=yes

Units are S.I. units (second, meters, Newtons, ...)
If the header above contains a line with 'inDegrees', this indicates whether rotational values are in degrees (yes) or radians (no).

endheader
time	pelvis_tilt	pelvis_list	pelvis_rotation	pelvis_tx	pelvis_ty	pelvis_tz	hip_flexion_r	hip_adduction_r	hip_rotation_r	knee_angle_r	knee_angle_r_beta	ankle_angle_r	subtalar_angle_r	mtp_angle_r	hip_flexion_l	hip_adduction_l	hip_rotation_l	knee_angle_l	knee_angle_l_beta	ankle_angle_l	subtalar_angle_l	mtp_angle_l	lumbar_extension	lumbar_bending	lumbar_rotation	arm_flex_r	arm_add_r	arm_rot_r	elbow_flex_r	pro_sup_r	arm_flex_l	arm_add_l	arm_rot_l	elbow_flex_l	pro_sup_l
      8.90000000	     15.89460121	     24.28806578	    -15.96074354	     -0.01673796	      0.96352707	      0.29987307	    -12.30719406	    -26.18752799	      5.44705381	      0.78862274	      0.01376406	      9.45502815	      4.76847871	     -7.49999987	     -0.23492164	    -24.40271439	     29.38400996	      1.89753840	      0.03311829	    -41.32169455	     -8.75242810	     -7.49999987	    -40.22914290	      2.45808203	     -9.76898356	     -3.73368476	    -25.70560162	    -36.47639578	     69.53750868	     80.45099659	     36.75500817	      2.00716365	     48.27528357	     19.88056382	     70.28774033
      8.91666670	     16.59235694	     24.82498516	    -16.15964881	     -0.00349273	      0.96053821	      0.29987966	    -13.78408978	    -27.01076246	      4.53587352	      0.55600781	      0.00970417	      9.78389039	      5.68457827	     -7.49999987	     -1.63928510	    -24.39634060	     28.67053471	      2.08079942	      0.03631680	    -40.98141620	    -10.31354112	     -7.49999987	    -39.52539404	      1.78615860	     -9.00285419	     -6.36913974	    -25.15665898	    -38.45539098	     63.38229594	     80.23499540	     34.31163403	      0.04562490	     47.36690326	     18.41686703	     69.94581542
      8.93333330	     16.81817660	     25.24724117	    -16.24650931	      0.00004914	      0.95674255	      0.29391777	    -14.58410424	    -27.75147393	      3.72351216	      0.47160180	      0.00823100	     10.13957488	      6.54753699	     -7.49999987	     -2.81308392	    -24.50611133	     27.77072100	      1.59210286	      0.02778744	    -41.20130496	    -12.39131523	     -7.49999987	    -38.63565974	      1.50323367	     -8.52238547	     -7.96021558	    -24.94792160	    -38.94860908	     58.26792008	     77.03804247	     32.22297727	     -1.74930479	     44.80743617	     17.00290184	     67.73942718
      8.95000000	     16.84519004	     25.46737767	    -16.71553077	     -0.00299666	      0.94725222	      0.28955904	    -14.57421273	    -28.38990622	      4.02386678	      0.49500181	      0.00863941	     10.76531878	      6.60892960	     -7.49999987	     -3.71505546	    -24.74052419	     26.23872144	      1.44867618	      0.02528417	    -41.85445815	    -15.54035268	     -7.49999987	    -37.69351147	      1.16103779	     -6.94635122	    -10.27294250	    -24.68865977	    -39.40418819	     56.07483286	     77.10238154	     30.65436683	     -3.63165871	     44.29985406	     16.39977091	     67.61603006
      8.96666670	     16.22030346	     25.36192525	    -16.59199528	     -0.03530482	      0.94809819	      0.29167528	    -12.58774783	    -27.97409243	      5.27720590	      0.60199045	      0.01050672	     10.49773286	      5.35481867	     -7.49999987	     -2.70748214	    -25.60086553	     24.28933417	      0.94417368	      0.01647894	    -42.61176218	    -16.88393531	     -7.49999987	    -37.96539231	      1.16402156	     -5.31007757	    -10.10566375	    -23.85259750	    -39.25891799	     54.19097898	     75.19491924	     31.54624918	     -5.81589260	     40.59397424	     16.21571889	     65.78540651
      8.98333330	     15.44646379	     25.49102883	    -16.25899111	     -0.04953692	      0.94457735	      0.28652991	    -10.10659835	    -27.81137780	      7.24053059	      0.95712344	      0.01670496	     10.32745611	      3.51271798	     -7.49999987	     -1.13643256	    -26.01703060	     23.11910029	      0.70536611	      0.01231096	    -43.88514481	    -18.20339137	     -7.49999987	    -38.22075188	      0.96969837	     -4.14947022	     -9.27619116	    -23.34984401	    -38.04408758	     52.37446824	     74.31466876	     33.42748249	     -8.23702987	     37.41019621	     16.57814325	     64.47734407
      9.00000000	     14.68974096	     25.63974545	    -15.37123117	     -0.05226522	      0.94926063	      0.28341056	     -7.96619429	    -27.69945759	      8.34563657	      1.74327464	      0.03042588	      9.68821962	      1.71270509	     -7.49999987	      0.83644237	    -26.05187125	     22.00152722	      0.56500966	      0.00986128	    -45.43982083	    -17.48120395	     -7.49999987	    -38.41620843	      0.93022037	     -3.57511532	     -8.26655099	    -22.89264197	    -35.75377369	     48.70807667	     71.02539483	     34.16489815	    -10.01363734	     31.43088562	     17.16239736	     61.58540623
      9.01666670	     13.71100134	     25.85302126	    -13.80320073	     -0.05534841	      0.94512288	      0.28293059	     -6.18447346	    -27.48407682	      8.86112842	      2.69993454	      0.04712275	      9.21711486	      0.20303637	     -7.49999987	      2.86347810	    -26.04580063	     21.47336461	      0.41585674	      0.00725807	    -46.77740406	    -15.90103795	     -7.49999987	    -37.80095216	      1.03117184	     -3.24414225	     -7.82284572	    -21.76335310	    -34.39123278	     45.35853740	     74.61831534	     32.67909691	    -11.40899102	     20.69547402	     19.32355701	     63.88950871
      9.03333330	     13.14091492	     25.80442307	    -12.29158869	     -0.05708803	      0.95092600	      0.28339801	     -5.54591862	    -27.11648123	      8.31866369	      3.25151806	      0.05674970	      8.31334905	     -1.06974404	     -7.49999987	      4.11856021	    -25.97772582	     21.48998349	      0.35230182	      0.00614883	    -47.23124517	    -14.27126896	     -7.49999987	    -37.70164621	      1.37736751	     -2.88408811	     -7.71257656	    -20.31143642	    -32.80560204	     42.52515890	     72.34595562	     32.45004687	    -12.89593180	     18.10179349	     19.47122192	     62.58045340
      9.05000000	     12.73179978	     25.73830634	    -11.02057536	     -0.05897419	      0.95511162	      0.28483885	     -5.32139275	    -26.73369712	      7.35117012	      3.44416322	      0.06011199	      7.60650657	     -1.34095646	     -7.49999987	      4.85077965	    -25.75955493	     21.53883264	      0.30737794	      0.00536476	    -46.93856828	    -12.40367182	     -7.49999987	    -37.34412770	      1.58795660	     -3.17787317	     -6.48072157	    -19.34734330	    -28.54591591	     39.11599490	     70.65455771	     31.64646832	    -14.85620894	     15.57127918	     19.63885217	     60.90434018
      9.06666670	     12.51795168	     25.68407993	     -9.75455365	     -0.06440867	      0.95416981	      0.28506582	     -5.43522528	    -26.37353923	      6.43478030	      3.50423109	      0.06116037	      6.84102381	     -1.83251109	     -7.49999987	      5.71969948	    -25.61604605	     21.25782628	      0.27878697	      0.00486575	    -47.53032410	    -10.05120746	     -7.49999987	    -37.12836629	      1.66640650	     -3.09415021	     -5.80173569	    -18.00212707	    -25.71532501	     36.38565986	     70.15417168	     31.16642769	    -16.64623687	     14.63509304	     19.15474718	     59.63539960
      9.08333330	     12.37276745	     25.58730083	     -8.62875588	     -0.06422625	      0.95648119	      0.28249151	     -5.69811819	    -26.04585422	      5.71270135	      3.50821643	      0.06122993	      6.18170419	     -2.55422665	     -7.49999987	      6.15645177	    -25.15877758	     21.81393595	      0.28138176	      0.00491104	    -47.58603421	     -9.14710159	     -7.49999987	    -37.12865490	      1.74396649	     -2.36692595	     -5.26567696	    -16.76003539	    -23.85468354	     34.62071515	     69.69936451	     31.46830437	    -17.77921964	     13.85822345	     18.85132241	     58.92040560
      9.10000000	     12.32010405	     25.59550631	     -7.81328365	     -0.06293253	      0.95617227	      0.28320366	     -6.17467257	    -25.89731745	      4.97541580	      3.53870054	      0.06176198	      5.97034807	     -3.01352452	     -7.49999987	      6.10304158	    -24.61264817	     22.22880964	      0.37734211	      0.00658586	    -47.76618353	     -8.93666454	     -7.49999987	    -37.07296947	      1.51338584	     -1.94964893	     -4.28187430	    -16.04256590	    -19.45541736	     32.14358236	     68.60277249	     31.12930487	    -19.18518602	     12.89318945	     19.02280856	     57.06332599
      9.11666670	     12.16537148	     25.61757381	     -6.55062668	     -0.05989062	      0.95367201	      0.28152556	     -7.03471376	    -25.66688539	      3.91689917	      2.92317568	      0.05101904	      5.17212028	     -4.02752257	     -7.49999987	      6.20550961	    -23.96830712	     22.17490391	      0.38284028	      0.00668182	    -48.15229503	     -8.97286244	     -7.49999987	    -36.78207922	      1.38382329	     -0.96404052	     -4.38741876	    -14.92356101	    -18.14965854	     31.40730111	     67.85453980	     30.64905741	    -19.94551489	     11.85785216	     19.27546117	     56.57359129
      9.13333330	     11.61093926	     25.51624362	     -5.42692874	     -0.05807628	      0.94906151	      0.27937992	     -7.21142952	    -25.34916155	      3.38079439	      2.77721723	      0.04847158	      5.17991187	     -4.83646761	     -7.49999987	      6.10069757	    -23.42809590	     22.68395900	      0.38181792	      0.00666398	    -47.57792484	    -10.12444343	     -7.49999987	    -36.04487066	      1.50551675	     -0.41204281	     -4.09155319	    -14.87460895	    -13.57617346	     30.11554245	     64.50628911	     29.49811391	    -21.03209413	     12.79136006	     18.67225314	     52.16499587
      9.15000000	     11.44531524	     25.27902834	     -4.41039186	     -0.06274525	      0.95394192	      0.28085980	     -7.72513797	    -24.87512880	      2.63120312	      2.49566042	      0.04355749	      5.15363162	     -5.19166589	     -7.49999987	      6.02404240	    -22.83218782	     22.95997225	      0.38435791	      0.00670831	    -46.56604760	    -10.87875542	     -7.49999987	    -35.83564361	      1.63275134	      0.66509415	     -3.96419116	    -14.47337359	    -13.09138433	     30.06490682	     64.58523542	     28.87451590	    -21.30978649	     12.78793171	     18.26303695	     52.12605434
